<svg width="30" height="24" viewBox="0 0 30 24" fill="none" xmlns="http://www.w3.org/2000/svg" class="club"><path d="M4.48105 14.3876C4.47455 11.9617 5.71591 10.3337 8.39524 10.3272C9.23852 10.3255 9.97781 10.4084 10.7171 10.6082L10.7204 12.3387L9.85432  12.3419L9.73571 11.2874C9.388 11.2241 8.90055 11.1639 8.4586 11.1639C6.44383 11.1672 5.73866 12.4264 5.74353 14.1763C5.74841 16.4641 6.56407  17.4016 8.49597 17.3984C8.89568 17.3967 9.349 17.3447 9.74871 17.257L9.91606 16.2025L10.7902 16.2009L10.7317 17.8988C9.99406 18.1003 9.27589  18.2189 8.39036 18.2205C5.73379 18.2254 4.48593 16.9109 4.48105 14.3876Z" fill="#126FFF"></path><path d="M11.9536 17.3886L12.5873 17.3447L12.5726 10.7935L11.7911 10.7951L11.7895 10.0672L13.5605 9.94695L13.6564 10.0314L13.6727 17.3854L14.3697  17.3837L14.3713 18.1019L11.9552 18.1068L11.9536 17.3886Z" fill="#126FFF"></path><path d="M15.6761 16.4641L15.6907 13.3851L15.0034 13.3867L15.0001 12.6799L16.6672 12.5905L16.7631 12.6636L16.7614 16.2821C16.7631 17.2521 17.439  17.4634 17.9443 17.4617C18.5146 17.4601 18.9679 17.1953 19.262 16.9954L19.2653 13.3769L18.5682 13.3786L18.5666 12.6718L20.2434 12.5954L20.349  12.6685L20.3377 17.322L21.0347 17.3512L21.0363 18.0694L19.4846 18.1458L19.4001 18.0515L19.3254 17.5251C18.7778 17.9492 18.1246 18.2238 17.4698  18.2254C16.2577 18.2254 15.6777 17.4877 15.6761 16.4641Z" fill="#126FFF"></path><path d="M22.3865 17.9378L22.3703 10.774L21.5985 10.7756L21.5969 10.0477L23.3598 9.92744L23.454 10.0119L23.4622 13.0292C23.8716 12.7432 24.4306 12.5093 25.1065 12.5093C26.7102 12.506 27.4836 13.5898 27.4868 15.1837C27.4901 17.0718 26.2504 18.1929 24.5508 18.1961C23.8538 18.1978 23.0608 18.1263  22.3865 17.9378ZM26.3462 15.291C26.3446 14.1097 25.8263 13.3087 24.7701 13.3103C24.2112 13.3119 23.7579 13.4825 23.4638 13.6824L23.4719 17.2586 C23.766 17.3415 24.1478 17.4162 24.58 17.4146C25.8149 17.4113 26.3495 16.4105 26.3462 15.291Z" fill="#126FFF"></path><path d="M3.21534 24C3.18446 24 3.15359 23.9984 3.12272 23.9935C2.94399 23.9675 2.78151 23.8668 2.67752 23.7189C2.56378 23.5548 2.45167 23.3858 2.34443  23.2168C1.26068 21.5059 0.540886 19.6179 0.207798 17.6047C-0.126914 15.5916 -0.0570471 13.5719 0.415775 11.6026C0.872348 9.70161 1.68313 7.92731  2.82538 6.33011C3.96763 4.73291 5.38447 3.39244 7.03528 2.34606C8.74459 1.26068 10.6326 0.542511 12.6474 0.207798C14.6605 -0.126914 16.6802  -0.0570471 18.6495 0.415775C20.5505 0.872349 22.3248 1.68313 23.922 2.82538C25.5192 3.96763 26.8597 5.38447 27.9061 7.03528C28.3415 7.72095  28.7217 8.44725 29.0386 9.18979C29.1182 9.37502 29.1068 9.58299 29.0109 9.7601C28.9134 9.93721 28.7445 10.0574 28.5446 10.0916C28.244 10.1419  27.9516 9.97783 27.8313 9.69511C27.5437 9.01918 27.196 8.35951 26.7996 7.73558C25.8442 6.22775 24.6191 4.93277 23.16 3.88963C21.6993 2.8465 20.0793  2.10558 18.3424 1.68963C16.5453 1.25743 14.7012 1.19406 12.8603 1.49953C11.021 1.80499 9.2954 2.46142 7.73395 3.45093C6.22612 4.40633 4.93114  5.63144 3.88801 7.09052C2.84488 8.54961 2.10396 10.1712 1.68638 11.9065C1.25743 13.7052 1.19406 15.5493 1.49953 17.3902C1.80499 19.2295 2.46142  20.9535 3.45093 22.5165C3.55005 22.6725 3.65241 22.8269 3.75477 22.9764C3.94813 23.2558 3.89288 23.6442 3.62641 23.8586C3.50943 23.9496 3.36482  24 3.21534 24Z" fill="#126FFF"></path></svg>